<?xml version="1.0" encoding="UTF-8"?>
<svg width="1200pt" height="1200pt" version="1.1" viewBox="0 0 1200 1200" xmlns="http://www.w3.org/2000/svg">
 <path d="m573.15 403.45c0 27.496-22.289 49.785-49.785 49.785-27.5 0-49.789-22.289-49.789-49.785 0-27.5 22.289-49.789 49.789-49.789 27.496 0 49.785 22.289 49.785 49.789z" fill="#221f20"/>
 <path d="m609.21 353.23c136.74-246.71 160.11-345.11 146.98-352.69-13.129-7.5703-86.605 61.801-231.79 303.38 36.18 0.38672 67.668 20.113 84.816 49.309z" fill="#221f20"/>
 <path d="m423.79 403.45c0-17.832 4.7656-34.547 13.008-49.043-281.38 4.9766-378.08 33.898-378.08 49.043 0 15.133 96.695 44.062 378.09 49.031-8.2461-14.484-13.012-31.188-13.012-49.031z" fill="#221f20"/>
 <path d="m609.3 453.53c-17.062 29.23-48.551 48.996-84.719 49.43 145.08 241.3 218.48 310.61 231.62 303.05 13.113-7.582-10.238-105.93-146.91-352.48z" fill="#221f20"/>
 <path d="m473.57 514.67v685.33h99.562v-527.16c-28.535-42.215-61.488-94.199-99.562-158.17z" fill="#221f20"/>
 <path d="m955.27 719.04c0 18.332-14.859 33.191-33.191 33.191s-33.191-14.859-33.191-33.191c0-18.332 14.859-33.191 33.191-33.191s33.191 14.859 33.191 33.191z" fill="#221f20"/>
 <path d="m866.78 682.41c-78.203-142.12-91.906-199.49-84.203-203.96 7.7148-4.4297 50.484 36.07 134.44 174.73-20.953 1.6133-39.242 12.676-50.234 29.234z" fill="#221f20"/>
 <path d="m988.46 719.04c0-10.43-2.6289-20.172-6.9102-28.945 161.39 3.3945 217.73 20.16 217.73 29.062 0 8.8672-56.328 25.645-217.79 29.039 4.3086-8.8281 6.9727-18.645 6.9727-29.156z" fill="#221f20"/>
 <path d="m866.77 755.68c11.004 16.57 29.27 27.637 50.258 29.258-83.93 138.66-126.73 179.17-134.44 174.73-7.7148-4.5117 5.9883-61.871 84.18-203.99z" fill="#221f20"/>
 <path d="m955.27 785.86-0.27734 414.14h-66.371l0.27734-309.24c18.625-27.086 40.609-61.539 66.371-104.91z" fill="#221f20"/>
 <path d="m175.32 719.04c0 18.332-14.859 33.191-33.191 33.191-18.332 0-33.191-14.859-33.191-33.191 0-18.332 14.859-33.191 33.191-33.191 18.332 0 33.191 14.859 33.191 33.191z" fill="#221f20"/>
 <path d="m86.84 682.41c-78.203-142.12-91.922-199.49-84.203-203.96 7.7148-4.4258 50.492 36.074 134.43 174.73-20.965 1.6094-39.254 12.672-50.23 29.23z" fill="#221f20"/>
 <path d="m208.51 719.04c0-10.43-2.6289-20.172-6.9258-28.945 161.39 3.3945 217.7 20.16 217.7 29.062 0 8.8672-56.34 25.645-217.8 29.039 4.3711-8.8281 7.0234-18.645 7.0234-29.156z" fill="#221f20"/>
 <path d="m86.812 755.68c11.004 16.57 29.281 27.637 50.258 29.258-83.941 138.62-126.72 179.13-134.44 174.68-7.7148-4.4648 6-61.824 84.18-203.94z" fill="#221f20"/>
 <path d="m175.31 785.86-0.27344 414.14h-66.375l0.27734-309.24c18.637-27.086 40.609-61.539 66.371-104.91z" fill="#221f20"/>
</svg>
