<?xml version="1.0" standalone="no"?>
<!DOCTYPE svg PUBLIC "-//W3C//DTD SVG 20010904//EN"
 "http://www.w3.org/TR/2001/REC-SVG-20010904/DTD/svg10.dtd">
<svg version="1.0" xmlns="http://www.w3.org/2000/svg"
 width="700.000000pt" height="605.000000pt" viewBox="0 0 700.000000 605.000000"
 preserveAspectRatio="xMidYMid meet">

<g transform="translate(0.000000,605.000000) scale(0.100000,-0.100000)"
fill="#000000" stroke="none">
<path d="M3465 5876 c-96 -147 -183 -737 -220 -1493 l-7 -133 59 22 c50 19 79
22 203 22 124 0 153 -3 203 -22 l58 -21 -6 132 c-33 703 -119 1310 -208 1472
-27 49 -59 57 -82 21z"/>
<path d="M3391 4054 c-197 -53 -333 -269 -292 -465 35 -170 156 -291 325 -325
69 -14 83 -14 152 0 219 44 364 251 325 462 -44 243 -275 391 -510 328z"/>
<path d="M2692 3485 c-636 -408 -1132 -812 -1132 -920 0 -54 50 -58 212 -16
245 64 694 254 1138 482 107 56 197 102 198 104 2 2 -21 28 -51 58 -98 98
-152 195 -185 326 l-17 71 -163 -105z"/>
<path d="M4130 3523 c-20 -103 -81 -214 -167 -304 l-74 -77 183 -95 c422 -220
883 -418 1143 -492 85 -24 191 -35 214 -20 20 12 11 52 -21 96 -124 173 -745
644 -1254 952 -7 4 -15 -18 -24 -60z"/>
<path d="M3326 2876 c-36 -873 -87 -1739 -140 -2404 l-21 -272 335 0 335 0
-22 298 c-57 775 -101 1502 -129 2152 -9 212 -17 386 -18 387 -1 1 -20 -3 -42
-9 -49 -14 -207 -14 -255 -1 l-36 11 -7 -162z"/>
</g>
</svg>
